<svg xmlns="http://www.w3.org/2000/svg" width="1em" height="1em" viewBox="0 0 24 24"><path fill="white" d="M12 17q.425 0 .713-.288T13 16v-3h3.025q.425 0 .7-.288T17 12q0-.425-.288-.713T16 11h-3V7.975q0-.425-.288-.7T12 7q-.425 0-.713.288T11 8v3H7.975q-.425 0-.7.288T7 12q0 .425.288.713T8 13h3v3.025q0 .425.288.7T12 17Zm0 5q-2.075 0-3.9-.788t-3.175-2.137q-1.35-1.35-2.137-3.175T2 12q0-2.075.788-3.9t2.137-3.175q1.35-1.35 3.175-2.137T12 2q2.075 0 3.9.788t3.175 2.137q1.35 1.35 2.138 3.175T22 12q0 2.075-.788 3.9t-2.137 3.175q-1.35 1.35-3.175 2.138T12 22Z"/></svg>